<mxfile host="65bd71144e">
    <diagram id="FC6OlUbM-UkpVk9BHUgn" name="第 1 页">
        <mxGraphModel dx="1086" dy="787" grid="1" gridSize="10" guides="1" tooltips="1" connect="1" arrows="1" fold="1" page="1" pageScale="1" pageWidth="827" pageHeight="1169" math="0" shadow="0">
            <root>
                <mxCell id="0"/>
                <mxCell id="1" parent="0"/>
                <mxCell id="7" value="" style="rounded=0;whiteSpace=wrap;html=1;" parent="1" vertex="1">
                    <mxGeometry x="10" y="30" width="700" height="510" as="geometry"/>
                </mxCell>
                <mxCell id="74" value="" style="group" vertex="1" connectable="0" parent="1">
                    <mxGeometry x="310" y="30" width="300" height="210" as="geometry"/>
                </mxCell>
                <mxCell id="75" value="" style="rounded=0;whiteSpace=wrap;html=1;" vertex="1" parent="74">
                    <mxGeometry width="300" height="210" as="geometry"/>
                </mxCell>
                <mxCell id="76" value="" style="group" vertex="1" connectable="0" parent="74">
                    <mxGeometry x="30" y="20" width="175" height="15" as="geometry"/>
                </mxCell>
                <mxCell id="77" value="删除" style="text;html=1;align=center;verticalAlign=middle;whiteSpace=wrap;rounded=0;movable=1;resizable=1;rotatable=1;deletable=1;editable=1;locked=0;connectable=1;" vertex="1" parent="76">
                    <mxGeometry x="115" width="60" height="15" as="geometry"/>
                </mxCell>
                <mxCell id="78" value="" style="rounded=1;whiteSpace=wrap;html=1;fillColor=#3333FF;movable=1;resizable=1;rotatable=1;deletable=1;editable=1;locked=0;connectable=1;" vertex="1" parent="76">
                    <mxGeometry x="95" width="15" height="15" as="geometry"/>
                </mxCell>
                <mxCell id="79" value="查看" style="text;html=1;align=center;verticalAlign=middle;whiteSpace=wrap;rounded=0;movable=1;resizable=1;rotatable=1;deletable=1;editable=1;locked=0;connectable=1;" vertex="1" parent="76">
                    <mxGeometry x="15" width="60" height="15" as="geometry"/>
                </mxCell>
                <mxCell id="80" value="" style="rounded=1;whiteSpace=wrap;html=1;fillColor=#3333FF;movable=1;resizable=1;rotatable=1;deletable=1;editable=1;locked=0;connectable=1;" vertex="1" parent="76">
                    <mxGeometry width="15" height="15" as="geometry"/>
                </mxCell>
                <mxCell id="81" value="" style="group" vertex="1" connectable="0" parent="1">
                    <mxGeometry x="310" y="240" width="300" height="100" as="geometry"/>
                </mxCell>
                <mxCell id="82" value="" style="rounded=0;whiteSpace=wrap;html=1;" vertex="1" parent="81">
                    <mxGeometry width="300" height="100" as="geometry"/>
                </mxCell>
                <mxCell id="83" value="" style="group" vertex="1" connectable="0" parent="81">
                    <mxGeometry x="30" y="6.666666666666666" width="175" height="5" as="geometry"/>
                </mxCell>
                <mxCell id="84" value="删除" style="text;html=1;align=center;verticalAlign=middle;whiteSpace=wrap;rounded=0;movable=1;resizable=1;rotatable=1;deletable=1;editable=1;locked=0;connectable=1;" vertex="1" parent="83">
                    <mxGeometry x="115" width="60" height="5" as="geometry"/>
                </mxCell>
                <mxCell id="85" value="" style="rounded=1;whiteSpace=wrap;html=1;fillColor=#3333FF;movable=1;resizable=1;rotatable=1;deletable=1;editable=1;locked=0;connectable=1;" vertex="1" parent="83">
                    <mxGeometry x="95" width="15" height="5" as="geometry"/>
                </mxCell>
                <mxCell id="86" value="查看" style="text;html=1;align=center;verticalAlign=middle;whiteSpace=wrap;rounded=0;movable=1;resizable=1;rotatable=1;deletable=1;editable=1;locked=0;connectable=1;" vertex="1" parent="83">
                    <mxGeometry x="15" width="60" height="5" as="geometry"/>
                </mxCell>
                <mxCell id="87" value="" style="rounded=1;whiteSpace=wrap;html=1;fillColor=#3333FF;movable=1;resizable=1;rotatable=1;deletable=1;editable=1;locked=0;connectable=1;" vertex="1" parent="83">
                    <mxGeometry width="15" height="5" as="geometry"/>
                </mxCell>
                <mxCell id="88" value="" style="group" vertex="1" connectable="0" parent="1">
                    <mxGeometry x="10" y="30" width="150" height="420" as="geometry"/>
                </mxCell>
                <mxCell id="46" value="" style="rounded=0;whiteSpace=wrap;html=1;" vertex="1" parent="88">
                    <mxGeometry width="150" height="210" as="geometry"/>
                </mxCell>
                <mxCell id="50" value="首页" style="text;html=1;align=center;verticalAlign=middle;whiteSpace=wrap;rounded=0;" vertex="1" parent="88">
                    <mxGeometry x="35" y="70" width="60" height="30" as="geometry"/>
                </mxCell>
                <mxCell id="89" value="" style="group" vertex="1" connectable="0" parent="88">
                    <mxGeometry y="210" width="150" height="210" as="geometry"/>
                </mxCell>
                <mxCell id="90" value="" style="rounded=0;whiteSpace=wrap;html=1;" vertex="1" parent="89">
                    <mxGeometry width="150" height="210" as="geometry"/>
                </mxCell>
                <mxCell id="91" value="商城管理" style="text;html=1;align=center;verticalAlign=middle;whiteSpace=wrap;rounded=0;" vertex="1" parent="89">
                    <mxGeometry x="35" y="70" width="60" height="30" as="geometry"/>
                </mxCell>
                <mxCell id="95" value="" style="group" vertex="1" connectable="0" parent="1">
                    <mxGeometry x="160" y="30" width="150" height="210" as="geometry"/>
                </mxCell>
                <mxCell id="96" value="" style="rounded=0;whiteSpace=wrap;html=1;" vertex="1" parent="95">
                    <mxGeometry width="150" height="210" as="geometry"/>
                </mxCell>
                <mxCell id="93" value="" style="rounded=0;whiteSpace=wrap;html=1;" vertex="1" parent="1">
                    <mxGeometry x="160" y="240" width="150" height="100" as="geometry"/>
                </mxCell>
                <mxCell id="94" value="订单管理" style="text;html=1;align=center;verticalAlign=middle;whiteSpace=wrap;rounded=0;" vertex="1" parent="1">
                    <mxGeometry x="200" y="260" width="60" height="30" as="geometry"/>
                </mxCell>
                <mxCell id="99" value="" style="rounded=0;whiteSpace=wrap;html=1;" vertex="1" parent="1">
                    <mxGeometry x="160" y="340" width="150" height="110" as="geometry"/>
                </mxCell>
                <mxCell id="100" value="商品管理" style="text;html=1;align=center;verticalAlign=middle;whiteSpace=wrap;rounded=0;" vertex="1" parent="1">
                    <mxGeometry x="205" y="370" width="60" height="30" as="geometry"/>
                </mxCell>
                <mxCell id="101" value="" style="group" vertex="1" connectable="0" parent="1">
                    <mxGeometry x="310" y="340" width="300" height="110" as="geometry"/>
                </mxCell>
                <mxCell id="102" value="" style="rounded=0;whiteSpace=wrap;html=1;" vertex="1" parent="101">
                    <mxGeometry width="300" height="110.00000000000001" as="geometry"/>
                </mxCell>
                <mxCell id="103" value="" style="group" vertex="1" connectable="0" parent="101">
                    <mxGeometry x="30" y="7.333333333333333" width="175" height="5.5" as="geometry"/>
                </mxCell>
                <mxCell id="104" value="删除" style="text;html=1;align=center;verticalAlign=middle;whiteSpace=wrap;rounded=0;movable=1;resizable=1;rotatable=1;deletable=1;editable=1;locked=0;connectable=1;" vertex="1" parent="103">
                    <mxGeometry x="115" width="60" height="5.5" as="geometry"/>
                </mxCell>
                <mxCell id="105" value="" style="rounded=1;whiteSpace=wrap;html=1;fillColor=#3333FF;movable=1;resizable=1;rotatable=1;deletable=1;editable=1;locked=0;connectable=1;" vertex="1" parent="103">
                    <mxGeometry x="95" width="15" height="5.5" as="geometry"/>
                </mxCell>
                <mxCell id="106" value="查看" style="text;html=1;align=center;verticalAlign=middle;whiteSpace=wrap;rounded=0;movable=1;resizable=1;rotatable=1;deletable=1;editable=1;locked=0;connectable=1;" vertex="1" parent="103">
                    <mxGeometry x="15" width="60" height="5.5" as="geometry"/>
                </mxCell>
                <mxCell id="107" value="" style="rounded=1;whiteSpace=wrap;html=1;fillColor=#3333FF;movable=1;resizable=1;rotatable=1;deletable=1;editable=1;locked=0;connectable=1;" vertex="1" parent="103">
                    <mxGeometry width="15" height="5.5" as="geometry"/>
                </mxCell>
                <mxCell id="113" value="" style="rounded=1;whiteSpace=wrap;html=1;fillColor=#3333FF;movable=1;resizable=1;rotatable=1;deletable=1;editable=1;locked=0;connectable=1;" vertex="1" parent="1">
                    <mxGeometry x="182" y="267" width="15" height="15" as="geometry"/>
                </mxCell>
                <mxCell id="114" value="" style="rounded=1;whiteSpace=wrap;html=1;fillColor=#3333FF;movable=1;resizable=1;rotatable=1;deletable=1;editable=1;locked=0;connectable=1;" vertex="1" parent="1">
                    <mxGeometry x="182" y="378" width="15" height="15" as="geometry"/>
                </mxCell>
                <mxCell id="115" value="" style="rounded=0;whiteSpace=wrap;html=1;" vertex="1" parent="1">
                    <mxGeometry x="10" y="700" width="700" height="510" as="geometry"/>
                </mxCell>
                <mxCell id="116" value="" style="group" vertex="1" connectable="0" parent="1">
                    <mxGeometry x="160" y="700" width="450" height="210" as="geometry"/>
                </mxCell>
                <mxCell id="117" value="" style="rounded=0;whiteSpace=wrap;html=1;" vertex="1" parent="116">
                    <mxGeometry width="450" height="210" as="geometry"/>
                </mxCell>
                <mxCell id="118" value="" style="group" vertex="1" connectable="0" parent="116">
                    <mxGeometry x="45" y="20" width="262.5" height="15" as="geometry"/>
                </mxCell>
                <mxCell id="119" value="删除" style="text;html=1;align=center;verticalAlign=middle;whiteSpace=wrap;rounded=0;movable=1;resizable=1;rotatable=1;deletable=1;editable=1;locked=0;connectable=1;" vertex="1" parent="118">
                    <mxGeometry x="172.5" width="90" height="15" as="geometry"/>
                </mxCell>
                <mxCell id="120" value="" style="rounded=1;whiteSpace=wrap;html=1;fillColor=#3333FF;movable=1;resizable=1;rotatable=1;deletable=1;editable=1;locked=0;connectable=1;" vertex="1" parent="118">
                    <mxGeometry x="142.5" width="22.5" height="15" as="geometry"/>
                </mxCell>
                <mxCell id="121" value="查看" style="text;html=1;align=center;verticalAlign=middle;whiteSpace=wrap;rounded=0;movable=1;resizable=1;rotatable=1;deletable=1;editable=1;locked=0;connectable=1;" vertex="1" parent="118">
                    <mxGeometry x="22.5" width="90" height="15" as="geometry"/>
                </mxCell>
                <mxCell id="122" value="" style="rounded=1;whiteSpace=wrap;html=1;fillColor=#3333FF;movable=1;resizable=1;rotatable=1;deletable=1;editable=1;locked=0;connectable=1;" vertex="1" parent="118">
                    <mxGeometry width="22.5" height="15" as="geometry"/>
                </mxCell>
                <mxCell id="123" value="" style="group" vertex="1" connectable="0" parent="1">
                    <mxGeometry x="380" y="910" width="230" height="100" as="geometry"/>
                </mxCell>
                <mxCell id="124" value="" style="rounded=0;whiteSpace=wrap;html=1;" vertex="1" parent="123">
                    <mxGeometry width="230.00000000000003" height="100" as="geometry"/>
                </mxCell>
                <mxCell id="125" value="" style="group" vertex="1" connectable="0" parent="123">
                    <mxGeometry x="23" y="6.666666666666666" width="134.16666666666669" height="5" as="geometry"/>
                </mxCell>
                <mxCell id="126" value="删除" style="text;html=1;align=center;verticalAlign=middle;whiteSpace=wrap;rounded=0;movable=1;resizable=1;rotatable=1;deletable=1;editable=1;locked=0;connectable=1;" vertex="1" parent="125">
                    <mxGeometry x="88.16666666666669" width="46.00000000000001" height="5" as="geometry"/>
                </mxCell>
                <mxCell id="127" value="" style="rounded=1;whiteSpace=wrap;html=1;fillColor=#3333FF;movable=1;resizable=1;rotatable=1;deletable=1;editable=1;locked=0;connectable=1;" vertex="1" parent="125">
                    <mxGeometry x="72.83333333333334" width="11.500000000000002" height="5" as="geometry"/>
                </mxCell>
                <mxCell id="128" value="查看" style="text;html=1;align=center;verticalAlign=middle;whiteSpace=wrap;rounded=0;movable=1;resizable=1;rotatable=1;deletable=1;editable=1;locked=0;connectable=1;" vertex="1" parent="125">
                    <mxGeometry x="11.500000000000002" width="46.00000000000001" height="5" as="geometry"/>
                </mxCell>
                <mxCell id="129" value="" style="rounded=1;whiteSpace=wrap;html=1;fillColor=#3333FF;movable=1;resizable=1;rotatable=1;deletable=1;editable=1;locked=0;connectable=1;" vertex="1" parent="125">
                    <mxGeometry width="11.500000000000002" height="5" as="geometry"/>
                </mxCell>
                <mxCell id="130" value="" style="group" vertex="1" connectable="0" parent="1">
                    <mxGeometry x="10" y="700" width="150" height="420" as="geometry"/>
                </mxCell>
                <mxCell id="131" value="" style="rounded=0;whiteSpace=wrap;html=1;" vertex="1" parent="130">
                    <mxGeometry width="150" height="210" as="geometry"/>
                </mxCell>
                <mxCell id="132" value="首页" style="text;html=1;align=center;verticalAlign=middle;whiteSpace=wrap;rounded=0;" vertex="1" parent="130">
                    <mxGeometry x="35" y="70" width="60" height="30" as="geometry"/>
                </mxCell>
                <mxCell id="133" value="" style="group" vertex="1" connectable="0" parent="130">
                    <mxGeometry y="210" width="150" height="210" as="geometry"/>
                </mxCell>
                <mxCell id="134" value="" style="rounded=0;whiteSpace=wrap;html=1;" vertex="1" parent="133">
                    <mxGeometry width="150" height="210" as="geometry"/>
                </mxCell>
                <mxCell id="135" value="商城管理" style="text;html=1;align=center;verticalAlign=middle;whiteSpace=wrap;rounded=0;" vertex="1" parent="133">
                    <mxGeometry x="35" y="70" width="60" height="30" as="geometry"/>
                </mxCell>
                <mxCell id="138" value="" style="rounded=0;whiteSpace=wrap;html=1;" vertex="1" parent="1">
                    <mxGeometry x="160" y="910" width="220" height="100" as="geometry"/>
                </mxCell>
                <mxCell id="139" value="订单管理" style="text;html=1;align=center;verticalAlign=middle;whiteSpace=wrap;rounded=0;" vertex="1" parent="1">
                    <mxGeometry x="200" y="930" width="60" height="30" as="geometry"/>
                </mxCell>
                <mxCell id="140" value="" style="rounded=0;whiteSpace=wrap;html=1;" vertex="1" parent="1">
                    <mxGeometry x="160" y="1010" width="220" height="110" as="geometry"/>
                </mxCell>
                <mxCell id="141" value="商品管理" style="text;html=1;align=center;verticalAlign=middle;whiteSpace=wrap;rounded=0;" vertex="1" parent="1">
                    <mxGeometry x="205" y="1040" width="60" height="30" as="geometry"/>
                </mxCell>
                <mxCell id="142" value="" style="group" vertex="1" connectable="0" parent="1">
                    <mxGeometry x="380" y="1010" width="230" height="110" as="geometry"/>
                </mxCell>
                <mxCell id="143" value="" style="rounded=0;whiteSpace=wrap;html=1;" vertex="1" parent="142">
                    <mxGeometry width="230.00000000000003" height="110.00000000000001" as="geometry"/>
                </mxCell>
                <mxCell id="144" value="" style="group" vertex="1" connectable="0" parent="142">
                    <mxGeometry x="23" y="7.333333333333333" width="134.16666666666669" height="5.5" as="geometry"/>
                </mxCell>
                <mxCell id="145" value="删除" style="text;html=1;align=center;verticalAlign=middle;whiteSpace=wrap;rounded=0;movable=1;resizable=1;rotatable=1;deletable=1;editable=1;locked=0;connectable=1;" vertex="1" parent="144">
                    <mxGeometry x="88.16666666666669" width="46.00000000000001" height="5.5" as="geometry"/>
                </mxCell>
                <mxCell id="146" value="" style="rounded=1;whiteSpace=wrap;html=1;fillColor=#3333FF;movable=1;resizable=1;rotatable=1;deletable=1;editable=1;locked=0;connectable=1;" vertex="1" parent="144">
                    <mxGeometry x="72.83333333333334" width="11.500000000000002" height="5.5" as="geometry"/>
                </mxCell>
                <mxCell id="147" value="查看" style="text;html=1;align=center;verticalAlign=middle;whiteSpace=wrap;rounded=0;movable=1;resizable=1;rotatable=1;deletable=1;editable=1;locked=0;connectable=1;" vertex="1" parent="144">
                    <mxGeometry x="11.500000000000002" width="46.00000000000001" height="5.5" as="geometry"/>
                </mxCell>
                <mxCell id="148" value="" style="rounded=1;whiteSpace=wrap;html=1;fillColor=#3333FF;movable=1;resizable=1;rotatable=1;deletable=1;editable=1;locked=0;connectable=1;" vertex="1" parent="144">
                    <mxGeometry width="11.500000000000002" height="5.5" as="geometry"/>
                </mxCell>
                <mxCell id="149" value="" style="rounded=1;whiteSpace=wrap;html=1;fillColor=#3333FF;movable=1;resizable=1;rotatable=1;deletable=1;editable=1;locked=0;connectable=1;" vertex="1" parent="1">
                    <mxGeometry x="182" y="937" width="15" height="15" as="geometry"/>
                </mxCell>
                <mxCell id="150" value="" style="rounded=1;whiteSpace=wrap;html=1;fillColor=#3333FF;movable=1;resizable=1;rotatable=1;deletable=1;editable=1;locked=0;connectable=1;" vertex="1" parent="1">
                    <mxGeometry x="182" y="1048" width="15" height="15" as="geometry"/>
                </mxCell>
                <mxCell id="164" value="" style="group" vertex="1" connectable="0" parent="1">
                    <mxGeometry x="10" y="450" width="150" height="210" as="geometry"/>
                </mxCell>
                <mxCell id="165" value="" style="rounded=0;whiteSpace=wrap;html=1;" vertex="1" parent="164">
                    <mxGeometry width="150" height="210" as="geometry"/>
                </mxCell>
                <mxCell id="166" value="财务管理" style="text;html=1;align=center;verticalAlign=middle;whiteSpace=wrap;rounded=0;" vertex="1" parent="164">
                    <mxGeometry x="35" y="70" width="60" height="30" as="geometry"/>
                </mxCell>
                <mxCell id="167" value="" style="group" vertex="1" connectable="0" parent="1">
                    <mxGeometry x="160" y="450" width="150" height="100" as="geometry"/>
                </mxCell>
                <mxCell id="168" value="" style="rounded=0;whiteSpace=wrap;html=1;" vertex="1" parent="167">
                    <mxGeometry width="150" height="100" as="geometry"/>
                </mxCell>
                <mxCell id="169" value="财务审计" style="text;html=1;align=center;verticalAlign=middle;whiteSpace=wrap;rounded=0;" vertex="1" parent="167">
                    <mxGeometry x="35" y="33.33333333333333" width="60" height="14.285714285714285" as="geometry"/>
                </mxCell>
                <mxCell id="170" value="" style="group" vertex="1" connectable="0" parent="1">
                    <mxGeometry x="160" y="550" width="150" height="120" as="geometry"/>
                </mxCell>
                <mxCell id="171" value="" style="rounded=0;whiteSpace=wrap;html=1;" vertex="1" parent="170">
                    <mxGeometry width="150" height="120" as="geometry"/>
                </mxCell>
                <mxCell id="172" value="财务报表" style="text;html=1;align=center;verticalAlign=middle;whiteSpace=wrap;rounded=0;" vertex="1" parent="170">
                    <mxGeometry x="35" y="39.99999999999999" width="60" height="17.142857142857142" as="geometry"/>
                </mxCell>
                <mxCell id="174" value="" style="group" vertex="1" connectable="0" parent="1">
                    <mxGeometry x="310" y="450" width="150" height="60" as="geometry"/>
                </mxCell>
                <mxCell id="175" value="" style="rounded=0;whiteSpace=wrap;html=1;" vertex="1" parent="174">
                    <mxGeometry width="150" height="60" as="geometry"/>
                </mxCell>
                <mxCell id="176" value="首页" style="text;html=1;align=center;verticalAlign=middle;whiteSpace=wrap;rounded=0;" vertex="1" parent="174">
                    <mxGeometry x="35" y="20" width="60" height="8.571428571428571" as="geometry"/>
                </mxCell>
                <mxCell id="178" value="" style="group" vertex="1" connectable="0" parent="1">
                    <mxGeometry x="310" y="500" width="150" height="60" as="geometry"/>
                </mxCell>
                <mxCell id="179" value="" style="rounded=0;whiteSpace=wrap;html=1;" vertex="1" parent="178">
                    <mxGeometry width="150" height="60" as="geometry"/>
                </mxCell>
                <mxCell id="180" value="首页" style="text;html=1;align=center;verticalAlign=middle;whiteSpace=wrap;rounded=0;" vertex="1" parent="178">
                    <mxGeometry x="35" y="20" width="60" height="8.571428571428571" as="geometry"/>
                </mxCell>
                <mxCell id="182" value="" style="group" vertex="1" connectable="0" parent="1">
                    <mxGeometry x="310" y="555" width="150" height="60" as="geometry"/>
                </mxCell>
                <mxCell id="183" value="" style="rounded=0;whiteSpace=wrap;html=1;" vertex="1" parent="182">
                    <mxGeometry width="150" height="60" as="geometry"/>
                </mxCell>
                <mxCell id="184" value="首页" style="text;html=1;align=center;verticalAlign=middle;whiteSpace=wrap;rounded=0;" vertex="1" parent="182">
                    <mxGeometry x="35" y="20" width="60" height="8.571428571428571" as="geometry"/>
                </mxCell>
                <mxCell id="185" value="" style="group" vertex="1" connectable="0" parent="1">
                    <mxGeometry x="310" y="610" width="150" height="60" as="geometry"/>
                </mxCell>
                <mxCell id="186" value="" style="rounded=0;whiteSpace=wrap;html=1;" vertex="1" parent="185">
                    <mxGeometry width="150" height="60" as="geometry"/>
                </mxCell>
                <mxCell id="187" value="首页" style="text;html=1;align=center;verticalAlign=middle;whiteSpace=wrap;rounded=0;" vertex="1" parent="185">
                    <mxGeometry x="35" y="20" width="60" height="8.571428571428571" as="geometry"/>
                </mxCell>
                <mxCell id="189" value="" style="group" vertex="1" connectable="0" parent="1">
                    <mxGeometry x="460" y="450" width="160" height="50" as="geometry"/>
                </mxCell>
                <mxCell id="190" value="" style="rounded=0;whiteSpace=wrap;html=1;" vertex="1" parent="189">
                    <mxGeometry width="160" height="50" as="geometry"/>
                </mxCell>
                <mxCell id="191" value="" style="group" vertex="1" connectable="0" parent="189">
                    <mxGeometry x="16" y="4.761904761904762" width="93.33333333333333" height="3.571428571428571" as="geometry"/>
                </mxCell>
                <mxCell id="192" value="删除" style="text;html=1;align=center;verticalAlign=middle;whiteSpace=wrap;rounded=0;movable=1;resizable=1;rotatable=1;deletable=1;editable=1;locked=0;connectable=1;" vertex="1" parent="191">
                    <mxGeometry x="61.333333333333336" width="32" height="3.571428571428571" as="geometry"/>
                </mxCell>
                <mxCell id="193" value="" style="rounded=1;whiteSpace=wrap;html=1;fillColor=#3333FF;movable=1;resizable=1;rotatable=1;deletable=1;editable=1;locked=0;connectable=1;" vertex="1" parent="191">
                    <mxGeometry x="50.666666666666664" width="8" height="3.571428571428571" as="geometry"/>
                </mxCell>
                <mxCell id="194" value="查看" style="text;html=1;align=center;verticalAlign=middle;whiteSpace=wrap;rounded=0;movable=1;resizable=1;rotatable=1;deletable=1;editable=1;locked=0;connectable=1;" vertex="1" parent="191">
                    <mxGeometry x="8" width="32" height="3.571428571428571" as="geometry"/>
                </mxCell>
                <mxCell id="195" value="" style="rounded=1;whiteSpace=wrap;html=1;fillColor=#3333FF;movable=1;resizable=1;rotatable=1;deletable=1;editable=1;locked=0;connectable=1;" vertex="1" parent="191">
                    <mxGeometry width="8" height="3.571428571428571" as="geometry"/>
                </mxCell>
                <mxCell id="200" value="" style="group" vertex="1" connectable="0" parent="1">
                    <mxGeometry x="460" y="500" width="160" height="50" as="geometry"/>
                </mxCell>
                <mxCell id="201" value="" style="rounded=0;whiteSpace=wrap;html=1;" vertex="1" parent="200">
                    <mxGeometry width="160" height="50" as="geometry"/>
                </mxCell>
                <mxCell id="202" value="" style="group" vertex="1" connectable="0" parent="200">
                    <mxGeometry x="16" y="4.761904761904762" width="93.33333333333333" height="3.5714285714285716" as="geometry"/>
                </mxCell>
                <mxCell id="203" value="删除" style="text;html=1;align=center;verticalAlign=middle;whiteSpace=wrap;rounded=0;movable=1;resizable=1;rotatable=1;deletable=1;editable=1;locked=0;connectable=1;" vertex="1" parent="202">
                    <mxGeometry x="61.333333333333336" width="32" height="3.5714285714285716" as="geometry"/>
                </mxCell>
                <mxCell id="204" value="" style="rounded=1;whiteSpace=wrap;html=1;fillColor=#3333FF;movable=1;resizable=1;rotatable=1;deletable=1;editable=1;locked=0;connectable=1;" vertex="1" parent="202">
                    <mxGeometry x="50.666666666666664" width="8" height="3.5714285714285716" as="geometry"/>
                </mxCell>
                <mxCell id="205" value="查看" style="text;html=1;align=center;verticalAlign=middle;whiteSpace=wrap;rounded=0;movable=1;resizable=1;rotatable=1;deletable=1;editable=1;locked=0;connectable=1;" vertex="1" parent="202">
                    <mxGeometry x="8" width="32" height="3.5714285714285716" as="geometry"/>
                </mxCell>
                <mxCell id="206" value="" style="rounded=1;whiteSpace=wrap;html=1;fillColor=#3333FF;movable=1;resizable=1;rotatable=1;deletable=1;editable=1;locked=0;connectable=1;" vertex="1" parent="202">
                    <mxGeometry width="8" height="3.5714285714285716" as="geometry"/>
                </mxCell>
                <mxCell id="207" value="" style="group" vertex="1" connectable="0" parent="1">
                    <mxGeometry x="460" y="555" width="170" height="55" as="geometry"/>
                </mxCell>
                <mxCell id="208" value="" style="rounded=0;whiteSpace=wrap;html=1;" vertex="1" parent="207">
                    <mxGeometry width="170" height="55" as="geometry"/>
                </mxCell>
                <mxCell id="209" value="" style="group" vertex="1" connectable="0" parent="207">
                    <mxGeometry x="17" y="5.238095238095237" width="99.16666666666666" height="3.9285714285714284" as="geometry"/>
                </mxCell>
                <mxCell id="210" value="删除" style="text;html=1;align=center;verticalAlign=middle;whiteSpace=wrap;rounded=0;movable=1;resizable=1;rotatable=1;deletable=1;editable=1;locked=0;connectable=1;" vertex="1" parent="209">
                    <mxGeometry x="65.16666666666666" width="34" height="3.9285714285714284" as="geometry"/>
                </mxCell>
                <mxCell id="211" value="" style="rounded=1;whiteSpace=wrap;html=1;fillColor=#3333FF;movable=1;resizable=1;rotatable=1;deletable=1;editable=1;locked=0;connectable=1;" vertex="1" parent="209">
                    <mxGeometry x="53.83333333333333" width="8.5" height="3.9285714285714284" as="geometry"/>
                </mxCell>
                <mxCell id="212" value="查看" style="text;html=1;align=center;verticalAlign=middle;whiteSpace=wrap;rounded=0;movable=1;resizable=1;rotatable=1;deletable=1;editable=1;locked=0;connectable=1;" vertex="1" parent="209">
                    <mxGeometry x="8.5" width="34" height="3.9285714285714284" as="geometry"/>
                </mxCell>
                <mxCell id="213" value="" style="rounded=1;whiteSpace=wrap;html=1;fillColor=#3333FF;movable=1;resizable=1;rotatable=1;deletable=1;editable=1;locked=0;connectable=1;" vertex="1" parent="209">
                    <mxGeometry width="8.5" height="3.9285714285714284" as="geometry"/>
                </mxCell>
                <mxCell id="214" value="" style="group" vertex="1" connectable="0" parent="1">
                    <mxGeometry x="460" y="610" width="170" height="60" as="geometry"/>
                </mxCell>
                <mxCell id="215" value="" style="rounded=0;whiteSpace=wrap;html=1;" vertex="1" parent="214">
                    <mxGeometry width="170" height="60" as="geometry"/>
                </mxCell>
                <mxCell id="216" value="" style="group" vertex="1" connectable="0" parent="214">
                    <mxGeometry x="17" y="5.7142857142857135" width="99.16666666666666" height="4.285714285714286" as="geometry"/>
                </mxCell>
                <mxCell id="217" value="删除" style="text;html=1;align=center;verticalAlign=middle;whiteSpace=wrap;rounded=0;movable=1;resizable=1;rotatable=1;deletable=1;editable=1;locked=0;connectable=1;" vertex="1" parent="216">
                    <mxGeometry x="65.16666666666667" width="34" height="4.285714285714286" as="geometry"/>
                </mxCell>
                <mxCell id="218" value="" style="rounded=1;whiteSpace=wrap;html=1;fillColor=#3333FF;movable=1;resizable=1;rotatable=1;deletable=1;editable=1;locked=0;connectable=1;" vertex="1" parent="216">
                    <mxGeometry x="53.83333333333333" width="8.5" height="4.285714285714286" as="geometry"/>
                </mxCell>
                <mxCell id="219" value="查看" style="text;html=1;align=center;verticalAlign=middle;whiteSpace=wrap;rounded=0;movable=1;resizable=1;rotatable=1;deletable=1;editable=1;locked=0;connectable=1;" vertex="1" parent="216">
                    <mxGeometry x="8.5" width="34" height="4.285714285714286" as="geometry"/>
                </mxCell>
                <mxCell id="220" value="" style="rounded=1;whiteSpace=wrap;html=1;fillColor=#3333FF;movable=1;resizable=1;rotatable=1;deletable=1;editable=1;locked=0;connectable=1;" vertex="1" parent="216">
                    <mxGeometry width="8.5" height="4.285714285714286" as="geometry"/>
                </mxCell>
            </root>
        </mxGraphModel>
    </diagram>
</mxfile>